<svg width="24" height="24" viewBox="0 0 24 24" fill="none" xmlns="http://www.w3.org/2000/svg">
<path d="M23.4 8.4L22.728 7.512L22.176 7.824C20.616 8.688 18.912 9.408 17.208 9.936C15.504 10.464 13.752 10.752 12.024 10.776C10.296 10.776 8.544 10.464 6.84 9.936C5.136 9.408 3.43199 8.688 1.87199 7.824L1.29599 7.512L0.623993 8.4L1.10399 8.832C1.77599 9.432 2.49599 9.96 3.23999 10.416L1.48799 13.416L3.16799 14.4L4.92 11.376C5.304 11.568 5.712 11.736 6.12 11.904C6.384 12.024 6.672 12.12 6.96 12.216L6.048 15.6L7.92 16.104L8.832 12.744C9.552 12.888 10.296 13.008 11.016 13.056V16.512H12.96V13.008C13.704 12.96 14.424 12.84 15.144 12.696L16.08 16.08L17.952 15.576L17.04 12.192C17.328 12.096 17.592 12 17.88 11.88C18.288 11.712 18.696 11.544 19.08 11.352L20.832 14.4L22.512 13.416L20.784 10.416C21.528 9.936 22.248 9.432 22.92 8.832L23.4 8.4Z" fill="#D0D0D0"/>
</svg>
