<svg width="24" height="24" viewBox="0 0 24 24" fill="none" xmlns="http://www.w3.org/2000/svg">
<path d="M23.1359 11.304C22.9439 11.064 18.1199 5.496 11.9999 5.496C5.87994 5.496 1.05594 11.064 0.863938 11.304C0.527938 11.712 0.527938 12.312 0.863938 12.72C1.05594 12.96 5.87994 18.528 11.9999 18.528C18.1199 18.528 22.9439 12.96 23.1359 12.72C23.4959 12.288 23.4959 11.712 23.1359 11.304ZM11.9999 16.344C8.06394 16.344 4.60794 13.392 3.19194 12C4.60794 10.608 8.06394 7.656 11.9999 7.656C15.9359 7.656 19.3919 10.608 20.8079 12C19.3919 13.392 15.9359 16.344 11.9999 16.344Z" fill="#9D65C9"/>
<path d="M8.78394 12C8.78394 13.776 10.2239 15.216 11.9999 15.216C13.7759 15.216 15.2159 13.776 15.2159 12C15.2159 10.224 13.7759 8.784 11.9999 8.784C10.2239 8.784 8.78394 10.224 8.78394 12Z" fill="#9D65C9"/>
</svg>
